<?xml version="1.0" encoding="UTF-8"?>
<svg id="_레이어_2" data-name="레이어 2" xmlns="http://www.w3.org/2000/svg" viewBox="0 0 100.92 160">
  <defs>
    <style>
      .cls-1 {
        fill: #1769ff;
      }
    </style>
  </defs>
  <g id="_레이어_1-2" data-name="레이어 1">
    <g>
      <path class="cls-1" d="m93.16,144.47h-2.11c-.72,0-1.33-.55-1.44-1.28-1.28-9.45-6.19-21.11-17.41-33.02-.72-.75-.85-1.93-.3-2.81,9.81-15.69,18.89-39.23,13.96-54.92-1.26-4.03-3.35-7.34-6.17-9.83-.57-.5-.47-1.42.19-1.79,7.04-3.87,11.71-11.78,11.09-20.73C90.24,9.4,81.8.75,71.46.05c-12.2-.83-22.38,9.2-22.38,21.63,0,6.39,2.69,12.15,6.96,16.11.55.51.44,1.41-.21,1.77-.95.51-1.87,1.11-2.76,1.77-10.27,7.75-13.53,24.01-13.84,32.39-.14,3.74.12,7.41.77,11.02,1.28,7.23,4.14,14.21,8.63,21.05,1.36,2.07,2.87,4.03,4.51,5.87l8.33,9.4c8.43,9.75,12.96,19.31,13.61,28.09.03.33.06.65.07.97.24,5.54,4.63,9.88,10.01,9.88h8.27c4.19,0,7.58-3.55,7.51-7.91-.07-4.28-3.63-7.63-7.77-7.63h0ZM70.05,15.53c3.28,0,5.96,2.76,5.96,6.15s-2.67,6.15-5.96,6.15-5.95-2.76-5.95-6.15,2.66-6.15,5.95-6.15Zm-10.58,79c-3.8-6.61-5.49-13.24-5.24-20.21.27-7.25,3.29-17.12,7.69-20.44.77-.58,1.75-1.13,3.22-1.13.65,0,1.4.11,2.28.35,2.22.64,3.43,1.84,4.15,4.14,2.22,7.05-1.47,22.76-9.58,37.24-.56,1.01-1.95,1.03-2.53.04h0Z"/>
      <path class="cls-1" d="m42.84,117.94c-.23-.32-.65-.39-.97-.19-12.22,7.95-21.29,3.33-25.18,2.04-4.93-1.64-10.2.82-12.26,5.74l-3.81,9.09c-1.65,3.94.1,8.51,3.91,10.21,3.81,1.71,8.23-.11,9.88-4.04l1.64-3.92c.27-.65.95-1.02,1.62-.88,8.02,1.65,19.73,3.7,33.64-6.01.37-.25.42-.79.13-1.13-1.31-1.51-2.62-3.06-3.91-4.68-1.65-2.07-3.21-4.15-4.68-6.23h0Z"/>
    </g>
  </g>
</svg>