<?xml version="1.0" encoding="UTF-8"?>
<svg id="_레이어_2" data-name="레이어 2" xmlns="http://www.w3.org/2000/svg" viewBox="0 0 636.06 160">
  <defs>
    <style>
      .cls-1 {
        fill: #1769ff;
      }
    </style>
  </defs>
  <g id="_레이어_1-2" data-name="레이어 1">
    <g>
      <path d="m135.82,50.88c-1.77-1.75-2.66-3.92-2.66-6.52s.89-4.78,2.66-6.53,4-2.62,6.68-2.62,4.9.87,6.68,2.62c1.77,1.75,2.66,3.92,2.66,6.53s-.89,4.78-2.66,6.53c-1.77,1.75-4,2.62-6.68,2.62s-4.9-.87-6.68-2.62h0Zm14.17,9.99v61.83h-15.19v-61.83h15.19Z"/>
      <path d="m215.65,66.96c4.41,4.65,6.62,11.14,6.62,19.47v36.27h-15.19v-34.15c0-4.91-1.19-8.68-3.58-11.33-2.39-2.64-5.64-3.97-9.77-3.97s-7.51,1.32-9.93,3.97c-2.43,2.64-3.64,6.42-3.64,11.33v34.15h-15.19v-61.84h15.19v7.7c2.03-2.68,4.61-4.78,7.76-6.31,3.15-1.53,6.6-2.29,10.36-2.29,7.16,0,12.95,2.33,17.37,6.98h0Z"/>
      <path d="m254.41,73.71v29.91c0,2.08.49,3.59,1.47,4.52.97.93,2.62,1.4,4.94,1.4h7.06v13.17h-9.55c-12.81,0-19.21-6.4-19.21-19.2v-29.8h-7.16v-12.83h7.16v-15.3h15.3v15.29h13.46v12.83h-13.46Z"/>
      <path d="m334.3,96.48h-43.96c.36,4.47,1.88,7.96,4.56,10.49,2.67,2.53,5.97,3.8,9.88,3.8,5.64,0,9.66-2.49,12.05-7.48h16.39c-1.74,5.95-5.07,10.85-9.99,14.68-4.92,3.83-10.97,5.74-18.13,5.74-5.79,0-10.98-1.32-15.58-3.96-4.6-2.64-8.18-6.38-10.74-11.22-2.57-4.84-3.86-10.42-3.86-16.74s1.27-12.01,3.8-16.85c2.53-4.84,6.08-8.56,10.63-11.15,4.56-2.61,9.81-3.91,15.74-3.91s10.83,1.26,15.36,3.8c4.52,2.53,8.03,6.12,10.53,10.77,2.5,4.65,3.75,9.99,3.75,16.01,0,2.23-.15,4.24-.43,6.02v.02Zm-15.3-10.49c-.07-4.02-1.48-7.23-4.24-9.65-2.75-2.42-6.11-3.62-10.09-3.62-3.76,0-6.93,1.18-9.5,3.51-2.57,2.34-4.14,5.6-4.72,9.77h28.55Z"/>
      <path d="m368.66,62.77c3.14-1.86,6.75-2.79,10.8-2.79v16.41h-4.02c-4.78,0-8.38,1.15-10.8,3.46-2.43,2.3-3.64,6.32-3.64,12.05v30.8h-15.19v-61.83h15.19v9.6c1.96-3.27,4.51-5.84,7.65-7.7Z"/>
      <path d="m412.95,62.71c3.44-1.9,7.37-2.84,11.78-2.84,5.14,0,9.78,1.3,13.95,3.91,4.16,2.61,7.45,6.31,9.88,11.1,2.43,4.8,3.64,10.36,3.64,16.69s-1.21,11.93-3.64,16.8c-2.43,4.87-5.72,8.65-9.88,11.33-4.16,2.68-8.81,4.02-13.95,4.02-4.41,0-8.3-.93-11.67-2.79-3.36-1.86-6.1-4.2-8.19-7.03v38.27h-15.19V60.87h15.19v8.93c1.96-2.83,4.65-5.19,8.08-7.09Zm21.49,19.2c-1.48-2.72-3.44-4.78-5.86-6.19-2.43-1.41-5.05-2.12-7.87-2.12s-5.34.72-7.76,2.18c-2.43,1.45-4.38,3.55-5.86,6.31-1.48,2.76-2.23,5.99-2.23,9.71s.74,6.96,2.23,9.71c1.48,2.75,3.44,4.85,5.86,6.31,2.43,1.45,5.01,2.18,7.76,2.18s5.44-.75,7.87-2.23c2.43-1.48,4.37-3.61,5.86-6.36,1.48-2.75,2.23-6.02,2.23-9.82s-.74-6.94-2.23-9.65h0Z"/>
      <path d="m462.99,74.93c2.43-4.84,5.72-8.56,9.88-11.16,4.16-2.61,8.81-3.91,13.95-3.91,4.48,0,8.41.93,11.78,2.79,3.36,1.86,6.06,4.2,8.08,7.03v-8.82h15.3v61.83h-15.3v-9.04c-1.96,2.9-4.65,5.3-8.08,7.2-3.44,1.9-7.4,2.84-11.89,2.84-5.06,0-9.68-1.34-13.84-4.02-4.17-2.68-7.46-6.45-9.88-11.33-2.43-4.87-3.64-10.47-3.64-16.8s1.21-11.79,3.64-16.63v.02Zm41.52,7.09c-1.45-2.72-3.4-4.8-5.86-6.25-2.46-1.45-5.1-2.18-7.92-2.18s-5.43.71-7.81,2.12c-2.39,1.41-4.33,3.48-5.8,6.19-1.48,2.72-2.23,5.93-2.23,9.65s.74,6.98,2.23,9.76c1.48,2.79,3.44,4.93,5.86,6.42,2.43,1.48,5.01,2.23,7.76,2.23s5.46-.72,7.92-2.18c2.46-1.45,4.41-3.54,5.86-6.25,1.45-2.72,2.17-5.97,2.17-9.77s-.73-7.05-2.17-9.77h0Z"/>
      <path d="m558.35,62.77c3.15-1.86,6.75-2.79,10.81-2.79v16.41h-4.02c-4.78,0-8.38,1.15-10.8,3.46-2.43,2.3-3.64,6.32-3.64,12.05v30.8h-15.2v-61.83h15.2v9.6c1.95-3.27,4.51-5.84,7.65-7.7Z"/>
      <path d="m616.31,122.7l-20.4-26.34v26.34h-15.19V40.12h15.19v46.98l20.19-26.23h19.75l-26.49,31.03,26.7,30.8h-19.75Z"/>
    </g>
    <g>
      <path class="cls-1" d="m93.16,144.47h-2.11c-.72,0-1.33-.55-1.44-1.28-1.28-9.45-6.19-21.11-17.41-33.02-.72-.75-.85-1.93-.3-2.81,9.81-15.69,18.89-39.23,13.96-54.92-1.26-4.03-3.35-7.34-6.17-9.83-.57-.5-.47-1.42.19-1.79,7.04-3.87,11.71-11.78,11.09-20.73C90.24,9.4,81.8.75,71.46.05c-12.2-.83-22.38,9.2-22.38,21.63,0,6.39,2.69,12.15,6.96,16.11.55.51.44,1.41-.21,1.77-.95.51-1.87,1.11-2.76,1.77-10.27,7.75-13.53,24.01-13.84,32.39-.14,3.74.12,7.41.77,11.02,1.28,7.23,4.14,14.21,8.63,21.05,1.36,2.07,2.87,4.03,4.51,5.87l8.33,9.4c8.43,9.75,12.96,19.31,13.61,28.09.03.33.06.65.07.97.24,5.54,4.63,9.88,10.01,9.88h8.27c4.19,0,7.58-3.55,7.51-7.91-.07-4.28-3.63-7.63-7.77-7.63h0ZM70.05,15.53c3.28,0,5.96,2.76,5.96,6.15s-2.67,6.15-5.96,6.15-5.95-2.76-5.95-6.15,2.66-6.15,5.95-6.15Zm-10.58,79c-3.8-6.61-5.49-13.24-5.24-20.21.27-7.25,3.29-17.12,7.69-20.44.77-.58,1.75-1.13,3.22-1.13.65,0,1.4.11,2.28.35,2.22.64,3.43,1.84,4.15,4.14,2.22,7.05-1.47,22.76-9.58,37.24-.56,1.01-1.95,1.03-2.53.04h0Z"/>
      <path class="cls-1" d="m42.84,117.94c-.23-.32-.65-.39-.97-.19-12.22,7.95-21.29,3.33-25.18,2.04-4.93-1.64-10.2.82-12.26,5.74l-3.81,9.09c-1.65,3.94.1,8.51,3.91,10.21,3.81,1.71,8.23-.11,9.88-4.04l1.64-3.92c.27-.65.95-1.02,1.62-.88,8.02,1.65,19.73,3.7,33.64-6.01.37-.25.42-.79.13-1.13-1.31-1.51-2.62-3.06-3.91-4.68-1.65-2.07-3.21-4.15-4.68-6.23h0Z"/>
    </g>
  </g>
</svg>